<svg xmlns="http://www.w3.org/2000/svg" viewBox="0 0 150 85.86"><defs><style>.cls-1{fill:none;stroke:#000;stroke-miterlimit:10;stroke-width:4px;}</style></defs><g id="Layer_2" data-name="Layer 2"><g id="Layer_1-2" data-name="Layer 1"><g id="logo_150"><path d="M12.27,17.76a26.4,26.4,0,0,1-1,3,15.35,15.35,0,0,1-3.37.49c-4.41,0-6.66-3.22-6.66-6.75a6.66,6.66,0,0,1,7-7A17.28,17.28,0,0,1,11.7,8c.07.91.2,2.12.35,3.13l-.57.14C11.11,10,10.66,9.13,9.72,8.7a4.67,4.67,0,0,0-1.93-.38c-3,0-4.65,2.47-4.65,5.8C3.14,18,5,20.53,8,20.53c1.88,0,2.8-1,3.75-3Z"/><path d="M25,21.16c-.24,0-.44,0-.68,0a3.24,3.24,0,0,1-2.88-1.74c-.68-1-1.34-2.31-1.94-3.34-.36-.64-.6-.77-1.55-.77h-.64v3.18c0,1.72.2,1.82,1.68,2V21H14v-.56c1.53-.18,1.66-.26,1.66-2V10.38c0-1.72-.2-1.78-1.66-2V7.86h4.71a4.89,4.89,0,0,1,2.95.68A3.11,3.11,0,0,1,23,11.21a3.72,3.72,0,0,1-2.38,3.48c.34.62,1.13,2,1.68,2.89a20.69,20.69,0,0,0,1.46,2.08,2.59,2.59,0,0,0,1.35.93Zm-6.81-6.57a2.8,2.8,0,0,0,2-.59,3,3,0,0,0,1-2.49c0-2.16-1.31-2.95-2.73-2.95a1.5,1.5,0,0,0-1,.21c-.17.14-.22.34-.22.86v5Z"/><path d="M25.7,21v-.56c1.52-.18,1.67-.26,1.67-2v-8c0-1.74-.15-1.82-1.67-2V7.86h4.95v.56c-1.53.18-1.68.26-1.68,2v8c0,1.74.15,1.8,1.68,2V21Z"/><path d="M42.66,21v-.56c1.51-.16,1.57-.28,1.55-2.45l0-8.24c-1.51,3.69-3.95,9.48-4.59,11.25h-.48c-.63-1.84-2.72-7.39-4.12-11-.31,7.07-.33,8.67-.33,9,0,1.13.48,1.3,1.73,1.44V21H32.07v-.56c1.07-.12,1.51-.37,1.66-1.46.11-.89.13-1.61.61-9,.07-1.05-.11-1.4-1.73-1.56V7.86h3.21L39.89,18.1,44.27,7.86H47.5v.56c-1.59.2-1.79.39-1.76,1.8L45.82,18c.07,2.17.13,2.27,1.75,2.45V21Z"/><path d="M55.47,10.93c-.31-1.34-.83-2.65-2.57-2.65A2,2,0,0,0,51,10.48c0,1.4.81,2.11,2.34,3,2.21,1.26,3.17,2.19,3.17,4.11a3.79,3.79,0,0,1-4.06,3.74,7.22,7.22,0,0,1-2.82-.67,29.67,29.67,0,0,1-.5-3l.58-.16c.36,1.35,1.18,3.11,3.1,3.11a2.13,2.13,0,0,0,2.14-2.32c0-1.56-.76-2.19-2.38-3.16-1.94-1.15-3-2.12-3-4a3.53,3.53,0,0,1,3.8-3.5A10.94,10.94,0,0,1,55.75,8c.07.72.14,1.53.29,2.85Z"/><path d="M64.68,7.57c3.15,0,6,2.65,6,6.67,0,4.35-2.7,7.06-6.09,7.06-3.55,0-6.13-2.95-6.13-6.75C58.44,10.93,60.78,7.57,64.68,7.57Zm-.37.75c-2.07,0-4,1.9-4,5.68s1.88,6.53,4.5,6.53c2.23,0,3.91-1.82,3.91-5.72C68.77,10.56,66.73,8.32,64.31,8.32Z"/><path d="M85.2,8.42c-1.18.14-1.57.35-1.63,1.27,0,.65,0,1.5,0,3.38v8.11h-.7L74.92,10.6v5.06c0,1.82.06,2.73.09,3.31,0,1,.5,1.34,1.83,1.46V21H72.36v-.56C73.5,20.33,73.94,20,74,19c0-.64.09-1.55.09-3.39V10.48a1.88,1.88,0,0,0-.37-1.33c-.35-.51-.74-.63-1.64-.73V7.86h2.76L82.69,18V13.07c0-1.88,0-2.75-.09-3.35-.06-.91-.48-1.2-2-1.3V7.86H85.2Z"/><path d="M97.21,10.93c-.31-1.34-.83-2.65-2.56-2.65a2,2,0,0,0-1.94,2.2c0,1.4.81,2.11,2.34,3,2.22,1.26,3.18,2.19,3.18,4.11a3.79,3.79,0,0,1-4.06,3.74,7.23,7.23,0,0,1-2.83-.67,30.11,30.11,0,0,1-.49-3l.57-.16c.37,1.35,1.18,3.11,3.1,3.11a2.13,2.13,0,0,0,2.14-2.32c0-1.56-.76-2.19-2.38-3.16-1.94-1.15-3-2.12-3-4a3.54,3.54,0,0,1,3.8-3.5A10.84,10.84,0,0,1,97.49,8c.07.72.15,1.53.29,2.85Z"/><path d="M109.5,11a8.65,8.65,0,0,0-.59-1.68c-.29-.54-.48-.69-1.49-.69h-1.85v9.85c0,1.57.15,1.8,1.9,1.92V21H102.1v-.56c1.72-.12,1.87-.33,1.87-1.92V8.66h-1.68c-1,0-1.31.13-1.63.73a10,10,0,0,0-.61,1.64H99.5c.11-1.23.22-2.51.28-3.64h.42c.28.49.48.47,1,.47h7.3a.92.92,0,0,0,1-.47h.44c0,1,.07,2.41.16,3.58Z"/><path d="M117.81,7.57c3.15,0,6,2.65,6,6.67,0,4.35-2.69,7.06-6.09,7.06s-6.12-2.95-6.12-6.75C111.57,10.93,113.91,7.57,117.81,7.57Zm-.37.75c-2.07,0-4,1.9-4,5.68s1.88,6.53,4.5,6.53c2.23,0,3.91-1.82,3.91-5.72C121.9,10.56,119.85,8.32,117.44,8.32Z"/><path d="M138.33,8.42c-1.19.14-1.57.35-1.63,1.27,0,.65,0,1.5,0,3.38v8.11H136l-7.9-10.58v5.06c0,1.82,0,2.73.09,3.31,0,1,.5,1.34,1.83,1.46V21h-4.49v-.56c1.15-.1,1.59-.41,1.66-1.4.06-.64.1-1.55.1-3.39V10.48a1.88,1.88,0,0,0-.37-1.33c-.35-.51-.74-.63-1.65-.73V7.86H128L135.82,18V13.07c0-1.88,0-2.75-.1-3.35-.05-.91-.48-1.2-1.95-1.3V7.86h4.56Z"/><path d="M149.38,17.78c-.11.53-.61,2.61-.79,3.21h-9v-.56c1.71-.14,1.84-.33,1.84-2v-8c0-1.8-.2-1.9-1.58-2V7.86h5.64c1.74,0,2.46,0,2.68,0,0,.5.09,2,.16,3.09l-.55.1a7.64,7.64,0,0,0-.55-1.54c-.3-.66-.72-.81-1.83-.81h-1.75c-.57,0-.61.06-.61.65v4.47h2.05c1.38,0,1.47-.31,1.69-1.68h.58v4.16h-.58c-.24-1.45-.38-1.65-1.71-1.65h-2v4c0,1.41.4,1.54,1.33,1.56h1.71c1.13,0,1.31-.19,1.72-.71a9.05,9.05,0,0,0,1-1.86Z"/><path d="M22.54,34.33c.91,0,3.26,1.69,3.26,3.13s-2.23,4.82-6.09,10.91c11.45-.78,20.61-6.93,20.61-13.14,0-2.95-2.71-5.78-9.88-5.78C16.64,29.45,4,38,4,46.26c0,3.5,2.23,4.4,2.23,4.89,0,.18-.18.3-.6.3C4.1,51.45,0,49,0,44.33,0,35.9,13.44,27.58,28.63,27.58c11,0,15.55,4.22,15.55,9,0,7.29-8.8,12.23-14.95,13.56,5,.84,8.74,4.22,8.74,8.5,0,5.18-6.27,11-15.13,11-6.38,0-10.06-3.44-10.06-4.82,0-.24.18-.48.36-.48.42,0,1.69,2.53,6.51,2.53,8.44,0,14.22-5.37,14.22-10.19,0-3.19-2.83-5.3-8.61-5.3a66.92,66.92,0,0,0-7.72.48,8.4,8.4,0,0,0-.6,1c-6.81,11-7.42,13.14-8.38,16.34-.12.36-.18.48-.36.48-.36,0-3-.78-3-3S7.72,61.33,13,52.17a3.19,3.19,0,0,1-.84-.06C10.25,51.87,9.89,49,10,48.31c.06-.3.3-.36.66-.3a32.85,32.85,0,0,0,4.58.42,116.3,116.3,0,0,0,6.87-13.68C22.18,34.51,22.3,34.33,22.54,34.33Z"/><path d="M60.76,49.52c-7.3,0-16,10.49-16,15.07,0,1.2.48,1.62,1,1.62,1.62,0,5.66-3.67,9.64-8.74,1.93-2.47,2.17-3.13,2.53-3.13.73,0,1.93,1.45,1.93,2.35,0,1.27-3,4-3,6.63,0,1.51.72,2,1.63,2,3.49,0,7.59-5.18,9.1-7.17.42-.55.54-.61.72-.61a.29.29,0,0,1,.3.31,1.58,1.58,0,0,1-.36.9c-1.87,2.95-6.45,8.32-10.73,8.32a3.63,3.63,0,0,1-3.8-3.74,5.89,5.89,0,0,1,.49-2.47c-3.2,3.8-7.36,7.72-10.55,7.72-1.57,0-3.38-1.09-3.38-3.92,0-7.12,10.73-17,18.69-17a3.84,3.84,0,0,1,3.43,1.45c.36.48.06.9-.48.66A3.26,3.26,0,0,0,60.76,49.52Z"/><path d="M74.38,58.5c1.92,3.8,4.46,5.79,7.23,5.79,3.74,0,7-3,9.34-5.85.36-.42.48-.6.6-.6a.45.45,0,0,1,.43.42,1.29,1.29,0,0,1-.37.78c-3,4-7.41,8.62-11.69,8.62-3.86,0-5.85-4-6.63-8.14a23,23,0,0,0-4.64,5.91c-1,2-1,4.34-1.81,4.34-.36,0-1.38-.36-1.38-2.71,0-8.14,18.81-45.22,25.32-45.22,1.45,0,2.65,1.15,2.65,1.69,0,.24-.24.42-.84.78C88.07,27.2,73.71,50,69.19,61.81c6.27-7.65,12.36-13.68,15.37-13.68,1.57,0,3.92,1.45,3.92,2.17,0,.12-.18.24-.36.24-3.44.36-5.43,1-10.07,4.76C77.09,56.09,75.76,57.17,74.38,58.5Z"/><path d="M101.56,48.07c2.89,0,3.92,1.21,3.92,2.89,0,3-5.49,7.3-12.6,8.87A10.91,10.91,0,0,0,92,63.68c0,1.81.9,2.65,2.95,2.65,5.18,0,11.15-5.72,13.26-8.19.42-.55.6-.55.78-.55s.24.13.24.31-.06.42-.42.9c-2.47,3.44-9.16,9.52-15.07,9.52-3.73,0-6-1.92-6-5.9C87.82,55.85,96.25,48.07,101.56,48.07Zm.9,1.39c-2.71.06-6.87,4.64-9,9.16,5.49-1.51,9.83-6.51,9.83-8.32C103.25,49.7,103,49.46,102.46,49.46Z"/><path d="M109.15,48.49c1.21,0,3.44.73,3.44,2.6,0,1-.6,3-2.29,7.23,4.22-6.33,6.93-11.39,10.61-11.39a4.18,4.18,0,0,1,4,3.43.42.42,0,0,1-.43.42,6.46,6.46,0,0,0-2.17-.54c-2.59,0-6.81,2.11-11.27,9.46-3.19,5.31-3.25,8.08-4.46,8.08a3.17,3.17,0,0,1-2.41-2.17c0-.84,1.45-3.43,2.89-7.77a24.78,24.78,0,0,0,1.63-7.54,5.31,5.31,0,0,0-.18-1.38C108.49,48.67,108.61,48.49,109.15,48.49Z"/><path d="M118.61,81.83c0-5.13,7.6-11.09,16.46-16.1,1.21-3.19,2.11-6,2.71-7.47l.48-1.15c-.06.06-.12.06-.12.12-3.73,5.13-9.28,10.61-12.29,10.61-2.23,0-4.1-1.63-4.1-5.06,0-4.16,5.67-13.5,8.26-13.5a2.88,2.88,0,0,1,2.29,1.87c0,.42-.42.54-1.27,1.5-4.52,5.25-5.72,8.86-5.72,11.15,0,1.33.48,1.93,1.44,1.93,2.29,0,8.56-7,10.43-9.58,4.28-5.79,6.69-9.16,8.44-9.16a1.58,1.58,0,0,1,1.57,1c0,.24-.25.48-.91,1.09-1.32,1.2-2.95,2.95-4.82,8.13-.48,1.33-1.09,3.5-1.87,6.09,2.17-1.14,4.4-2.23,6.57-3.19a2.69,2.69,0,0,1,1-.3c.36,0,.6.12.6.36s-.36.66-1,1c-2.53,1.15-5.18,2.41-7.71,3.8-2.71,8.8-7.36,20.91-15.67,20.91C120.54,85.86,118.61,84.42,118.61,81.83Zm3.8,2.35c4.64,0,9-8.92,11.94-16.46-7.66,4.64-13.63,10-13.63,14.59A1.74,1.74,0,0,0,122.41,84.18Z"/><line class="cls-1" x1="0.53" y1="2" x2="150" y2="2"/><polygon points="84.98 24.8 83.86 26.29 0.53 26.29 0.53 24.8 84.98 24.8"/><polygon points="150 24.8 150 26.29 92.08 26.29 93.57 24.8 150 24.8"/></g></g></g></svg>