<svg xmlns="http://www.w3.org/2000/svg" viewBox="0 0 300 169.73"><defs><style>.cls-1{fill:none;stroke:#000;stroke-miterlimit:10;stroke-width:4px;}</style></defs><g id="Layer_2" data-name="Layer 2"><g id="Layer_1-2" data-name="Layer 1"><g id="logo_300"><path d="M24.54,33.52a55.66,55.66,0,0,1-2,6.1,30.32,30.32,0,0,1-6.76,1c-8.81,0-13.32-6.43-13.32-13.51,0-8.24,5.72-13.95,14-13.95a34.62,34.62,0,0,1,7,.93c.15,1.82.41,4.25.71,6.27L23,20.62c-.74-2.7-1.62-4.36-3.5-5.21a9.28,9.28,0,0,0-3.88-.77c-6.09,0-9.3,4.93-9.3,11.6,0,7.81,3.69,12.82,9.67,12.82,3.76,0,5.61-1.9,7.49-5.94Z"/><path d="M50,40.31c-.48,0-.89,0-1.37-.08-2.69-.2-4.13-1-5.76-3.48-1.36-2.06-2.69-4.6-3.87-6.67-.74-1.29-1.22-1.53-3.1-1.53H34.58v6.34c0,3.44.4,3.64,3.36,4V40H28.08V38.86c3.07-.37,3.32-.53,3.32-4V18.76c0-3.43-.4-3.55-3.32-3.92V13.71h9.41c2.7,0,4.51.36,5.91,1.38a6.22,6.22,0,0,1,2.51,5.33c0,3.48-2,5.66-4.76,7,.66,1.25,2.25,4,3.35,5.78a37.3,37.3,0,0,0,2.92,4.16,5.3,5.3,0,0,0,2.69,1.86ZM36.35,27.17c1.92,0,3.14-.32,4.06-1.17a5.91,5.91,0,0,0,2-5c0-4.33-2.62-5.9-5.46-5.9a3.18,3.18,0,0,0-2,.4c-.33.28-.44.69-.44,1.74v9.9Z"/><path d="M51.41,40V38.86c3-.37,3.32-.53,3.32-4v-16c0-3.48-.29-3.64-3.32-4V13.71H61.3v1.13c-3.06.37-3.36.53-3.36,4v16c0,3.48.3,3.6,3.36,4V40Z"/><path d="M85.32,40V38.86c3-.33,3.14-.57,3.1-4.89l0-16.5c-3,7.4-7.9,19-9.19,22.52h-1c-1.25-3.68-5.42-14.8-8.23-22.11C69.46,32,69.42,35.22,69.42,36c0,2.26,1,2.58,3.47,2.87V40H64.14V38.86c2.14-.25,3-.73,3.32-2.91.22-1.78.26-3.24,1.22-18,.15-2.11-.22-2.79-3.47-3.12V13.71h6.42l8.16,20.5,8.74-20.5H95v1.13c-3.17.41-3.58.77-3.5,3.6L91.63,34c.15,4.32.26,4.52,3.51,4.89V40Z"/><path d="M110.94,19.86c-.63-2.67-1.66-5.3-5.13-5.3-2.88,0-3.88,2.3-3.88,4.41,0,2.79,1.63,4.2,4.69,5.94,4.43,2.51,6.35,4.37,6.35,8.21,0,4.24-3.36,7.48-8.12,7.48a14.28,14.28,0,0,1-5.65-1.34c-.29-1.13-.73-3.88-1-6.06l1.14-.33c.74,2.71,2.36,6.23,6.2,6.23,2.66,0,4.28-2,4.28-4.65,0-3.11-1.51-4.37-4.76-6.31-3.87-2.3-6-4.24-6-8,0-3.6,2.73-7,7.6-7a21.69,21.69,0,0,1,4.87.77c.15,1.46.3,3.08.59,5.7Z"/><path d="M129.36,13.14c6.31,0,11.95,5.3,11.95,13.35,0,8.69-5.39,14.11-12.18,14.11-7.08,0-12.25-5.91-12.25-13.51C116.88,19.86,121.57,13.14,129.36,13.14Zm-.74,1.5c-4.14,0-7.9,3.8-7.9,11.36s3.76,13.06,9,13.06c4.47,0,7.83-3.64,7.83-11.44C137.55,19.13,133.45,14.64,128.62,14.64Z"/><path d="M170.39,14.84c-2.36.29-3.13.69-3.24,2.55,0,1.29-.11,3-.11,6.75V40.35h-1.41L149.84,19.21V29.32c0,3.63.11,5.45.18,6.63.08,2.06,1,2.66,3.66,2.91V40h-9V38.86c2.29-.21,3.17-.81,3.32-2.79.11-1.3.19-3.12.19-6.79V19a3.77,3.77,0,0,0-.74-2.67c-.7-1-1.48-1.25-3.29-1.46V13.71h5.54l15.65,20.34V24.14c0-3.76-.08-5.5-.19-6.71-.11-1.82-1-2.38-3.91-2.59V13.71h9.11Z"/><path d="M194.42,19.86c-.62-2.67-1.66-5.3-5.13-5.3-2.88,0-3.87,2.3-3.87,4.41,0,2.79,1.62,4.2,4.68,5.94,4.43,2.51,6.35,4.37,6.35,8.21,0,4.24-3.36,7.48-8.12,7.48a14.19,14.19,0,0,1-5.64-1.34,58.86,58.86,0,0,1-1-6.06l1.15-.33c.73,2.71,2.36,6.23,6.19,6.23,2.66,0,4.29-2,4.29-4.65,0-3.11-1.52-4.37-4.76-6.31-3.88-2.3-6.06-4.24-6.06-8,0-3.6,2.73-7,7.6-7a21.91,21.91,0,0,1,4.88.77c.14,1.46.29,3.08.59,5.7Z"/><path d="M219,20.06a15.86,15.86,0,0,0-1.18-3.36c-.59-1.09-1-1.37-3-1.37h-3.69V35c0,3.15.3,3.59,3.8,3.84V40H204.2V38.86c3.44-.25,3.73-.65,3.73-3.84V15.33h-3.36c-2,0-2.62.24-3.24,1.45a18.88,18.88,0,0,0-1.22,3.28H199c.22-2.47.44-5,.55-7.28h.85c.56,1,1,.93,2,.93H217a1.79,1.79,0,0,0,1.88-.93h.89c0,1.9.14,4.81.33,7.16Z"/><path d="M235.61,13.14c6.31,0,12,5.3,12,13.35,0,8.69-5.39,14.11-12.18,14.11-7.09,0-12.25-5.91-12.25-13.51C223.14,19.86,227.82,13.14,235.61,13.14Zm-.74,1.5c-4.13,0-7.89,3.8-7.89,11.36s3.76,13.06,9,13.06c4.47,0,7.82-3.64,7.82-11.44C243.8,19.13,239.71,14.64,234.87,14.64Z"/><path d="M276.65,14.84c-2.36.29-3.14.69-3.25,2.55,0,1.29-.11,3-.11,6.75V40.35h-1.4l-15.8-21.14V29.32c0,3.63.12,5.45.19,6.63.07,2.06,1,2.66,3.65,2.91V40h-9V38.86c2.28-.21,3.17-.81,3.32-2.79.11-1.3.18-3.12.18-6.79V19a3.72,3.72,0,0,0-.74-2.67c-.7-1-1.47-1.25-3.28-1.46V13.71H256l15.65,20.34V24.14c0-3.76-.07-5.5-.18-6.71-.11-1.82-1-2.38-3.91-2.59V13.71h9.11Z"/><path d="M298.76,33.56c-.22,1-1.22,5.22-1.59,6.43H279.24V38.86c3.43-.29,3.69-.65,3.69-4v-16c0-3.6-.41-3.8-3.18-4.09V13.71h11.3c3.46,0,4.9,0,5.35-.08,0,1,.18,4,.33,6.19l-1.11.2A13.61,13.61,0,0,0,294.51,17c-.59-1.34-1.43-1.62-3.65-1.62h-3.5c-1.15,0-1.22.12-1.22,1.29v8.94h4.09c2.77,0,3-.61,3.4-3.36h1.14v8.33h-1.14c-.48-2.91-.78-3.32-3.43-3.32h-4.06v8c0,2.83.81,3.07,2.65,3.11h3.44c2.25,0,2.62-.36,3.43-1.41a18.09,18.09,0,0,0,2-3.72Z"/><path d="M45.09,66.66c1.8,0,6.51,3.37,6.51,6.27s-4.46,9.64-12.18,21.82c22.9-1.57,41.23-13.87,41.23-26.28,0-5.91-5.43-11.58-19.77-11.58-27.61,0-52.8,17-52.8,33.64,0,7,4.46,8.8,4.46,9.76,0,.36-.36.6-1.21.6C8.2,100.89,0,96,0,86.67,0,69.79,26.88,53.16,57.26,53.16c21.94,0,31.1,8.43,31.1,18,0,14.58-17.6,24.47-29.89,27.12,10,1.69,17.48,8.44,17.48,17,0,10.37-12.54,21.94-30.26,21.94-12.78,0-20.13-6.87-20.13-9.64,0-.49.36-1,.72-1,.84,0,3.38,5.06,13,5.06,16.88,0,28.45-10.72,28.45-20.37,0-6.39-5.67-10.61-17.24-10.61a131.35,131.35,0,0,0-15.43,1,17.57,17.57,0,0,0-1.21,1.93c-13.62,21.94-14.82,26.28-16.75,32.67-.24.72-.36,1-.73,1-.72,0-6-1.57-6-5.91,0-4.1,5.06-10.61,15.67-28.93a6.46,6.46,0,0,1-1.69-.12c-3.86-.48-4.58-6.27-4.46-7.6.12-.6.6-.72,1.33-.6a66.3,66.3,0,0,0,9.16.85c9-16.16,12.29-23.75,13.74-27.37C44.36,67,44.6,66.66,45.09,66.66Z"/><path d="M121.51,97c-14.59,0-32.07,21-32.07,30.13,0,2.41,1,3.26,2,3.26,3.26,0,11.34-7.35,19.29-17.48,3.86-4.94,4.34-6.27,5.07-6.27,1.44,0,3.85,2.89,3.85,4.7,0,2.53-5.9,8.08-5.9,13.26,0,3,1.44,4,3.25,4,7,0,15.19-10.37,18.2-14.35.85-1.08,1.09-1.2,1.45-1.2a.57.57,0,0,1,.6.6,3.19,3.19,0,0,1-.72,1.81c-3.74,5.91-12.9,16.64-21.46,16.64a7.25,7.25,0,0,1-7.59-7.48,12.07,12.07,0,0,1,1-4.94c-6.39,7.59-14.71,15.43-21.09,15.43-3.14,0-6.76-2.17-6.76-7.84,0-14.22,21.46-34,37.38-34,3.61,0,5.66,1.2,6.87,2.89.72,1,.12,1.81-1,1.33A6.54,6.54,0,0,0,121.51,97Z"/><path d="M148.75,115c3.86,7.59,8.92,11.57,14.47,11.57,7.47,0,14.1-6,18.68-11.69.73-.85,1-1.21,1.21-1.21a.9.9,0,0,1,.84.85,2.68,2.68,0,0,1-.72,1.56c-5.91,8-14.83,17.24-23.39,17.24-7.71,0-11.69-8.08-13.26-16.27-3.86,3.86-7.59,8.07-9.28,11.81-1.93,4-1.93,8.68-3.62,8.68-.72,0-2.77-.72-2.77-5.42,0-16.28,37.64-90.44,50.66-90.44,2.89,0,5.3,2.29,5.3,3.38,0,.48-.48.84-1.69,1.56-9,5.79-37.75,51.38-46.8,75,12.54-15.31,24.72-27.37,30.75-27.37,3.13,0,7.83,2.9,7.83,4.34,0,.24-.36.49-.72.49-6.87.72-10.85,2-20.13,9.52C154.18,110.18,151.52,112.35,148.75,115Z"/><path d="M203.12,94.14c5.78,0,7.83,2.41,7.83,5.79,0,5.91-11,14.59-25.19,17.72a21.72,21.72,0,0,0-1.69,7.72c0,3.61,1.81,5.3,5.91,5.3,10.37,0,22.3-11.45,26.52-16.4.84-1.08,1.21-1.08,1.57-1.08s.48.24.48.6-.12.85-.84,1.81c-5,6.87-18.33,19.05-30.14,19.05-7.48,0-11.94-3.86-11.94-11.82C175.63,109.69,192.51,94.14,203.12,94.14Zm1.81,2.78c-5.43.12-13.75,9.28-18.09,18.32,11-3,19.65-13,19.65-16.64C206.49,97.4,205.89,96.92,204.93,96.92Z"/><path d="M218.31,95c2.41,0,6.87,1.44,6.87,5.18,0,2-1.21,6-4.58,14.47C229,102,234.46,91.85,241.81,91.85c5.55,0,8,5.43,8,6.87a.82.82,0,0,1-.84.85c-.73,0-1.69-1.09-4.34-1.09-5.19,0-13.63,4.22-22.55,18.93-6.39,10.61-6.51,16.15-8.92,16.15-1.81,0-4.82-2.77-4.82-4.34s2.89-6.87,5.79-15.55c3-8.92,3.25-13.62,3.25-15.07a10.66,10.66,0,0,0-.36-2.77C217,95.35,217.22,95,218.31,95Z"/><path d="M237.23,161.65c0-10.25,15.19-22.18,32.91-32.19,2.41-6.38,4.22-12.05,5.43-14.94l1-2.29c-.12.12-.24.12-.24.24-7.48,10.24-18.57,21.21-24.59,21.21-4.46,0-8.2-3.25-8.2-10.12,0-8.32,11.33-27,16.51-27,1.93,0,4.58,2.54,4.58,3.74,0,.84-.84,1.09-2.53,3-9,10.49-11.45,17.73-11.45,22.31,0,2.65,1,3.85,2.89,3.85,4.59,0,17.12-14,20.86-19.16C282.92,98.72,287.74,92,291.24,92a3.14,3.14,0,0,1,3.13,2c0,.48-.48,1-1.81,2.17-2.65,2.41-5.9,5.91-9.64,16.28-1,2.65-2.17,7-3.74,12.17,4.34-2.29,8.8-4.46,13.14-6.39a5.49,5.49,0,0,1,2.05-.6c.72,0,1.21.24,1.21.72,0,.73-.73,1.33-2.05,1.93-5.07,2.29-10.37,4.82-15.43,7.6-5.43,17.6-14.71,41.83-31.35,41.83C241.09,169.73,237.23,166.84,237.23,161.65Zm7.59,4.7c9.29,0,18-17.84,23.87-32.91-15.31,9.28-27.24,20-27.24,29.18A3.46,3.46,0,0,0,244.82,166.35Z"/><line class="cls-1" x1="1.05" y1="2" x2="300" y2="2"/><polygon points="169.96 47.59 167.72 50.58 1.05 50.58 1.05 47.59 169.96 47.59"/><polygon points="300 47.59 300 50.58 184.16 50.58 187.15 47.59 300 47.59"/></g></g></g></svg>