<svg xmlns="http://www.w3.org/2000/svg" viewBox="0 0 201 114.32"><defs><style>.cls-1,.cls-2{fill:#fff;stroke:#fff;stroke-miterlimit:10;}.cls-2{stroke-width:4px;}</style></defs><g id="Layer_2" data-name="Layer 2"><g id="Layer_1-2" data-name="Layer 1"><g id="logo-white_200"><path class="cls-1" d="M16.86,23a38.72,38.72,0,0,1-1.35,4.07,20.81,20.81,0,0,1-4.51.65c-5.88,0-8.88-4.29-8.88-9a8.89,8.89,0,0,1,9.33-9.3,23.57,23.57,0,0,1,4.65.62c.09,1.21.27,2.83.46,4.18l-.76.19c-.49-1.81-1.08-2.91-2.34-3.48a6.24,6.24,0,0,0-2.58-.51c-4.06,0-6.2,3.29-6.2,7.73,0,5.2,2.46,8.55,6.45,8.55,2.51,0,3.74-1.27,5-4Z"/><path class="cls-1" d="M33.81,27.54c-.32,0-.59,0-.91-.05a4.31,4.31,0,0,1-3.84-2.32c-.91-1.37-1.79-3.07-2.58-4.45-.49-.86-.81-1-2.07-1h-.86v4.23c0,2.29.27,2.43,2.24,2.64v.76H19.22v-.76c2-.24,2.22-.35,2.22-2.64V13.18c0-2.29-.27-2.38-2.22-2.62V9.81H25.5a6.47,6.47,0,0,1,3.93.91,4.15,4.15,0,0,1,1.67,3.56,5,5,0,0,1-3.17,4.64c.44.83,1.5,2.64,2.24,3.85a26.09,26.09,0,0,0,1.94,2.78,3.52,3.52,0,0,0,1.8,1.24Zm-9.08-8.76A3.71,3.71,0,0,0,27.44,18a3.93,3.93,0,0,0,1.35-3.31c0-2.89-1.74-3.94-3.64-3.94a2.09,2.09,0,0,0-1.3.27c-.22.19-.3.46-.3,1.16v6.6Z"/><path class="cls-1" d="M34.77,27.33v-.76c2-.24,2.22-.35,2.22-2.64V13.23c0-2.32-.2-2.43-2.22-2.67V9.81h6.6v.75c-2,.24-2.24.35-2.24,2.67v10.7c0,2.32.19,2.4,2.24,2.64v.76Z"/><path class="cls-1" d="M57.38,27.33v-.76c2-.21,2.09-.38,2.07-3.26l0-11c-2,4.94-5.26,12.64-6.12,15h-.64c-.84-2.46-3.62-9.87-5.49-14.75-.42,9.44-.44,11.57-.44,12.08,0,1.51.64,1.72,2.31,1.91v.76H43.26v-.76c1.43-.16,2-.48,2.22-1.94.14-1.19.17-2.16.81-12,.1-1.4-.15-1.86-2.32-2.08V9.81h4.29l5.43,13.66L59.52,9.81h4.31v.75c-2.12.27-2.39.51-2.34,2.4l.1,10.35c.1,2.88.17,3,2.34,3.26v.76Z"/><path class="cls-1" d="M74.46,13.9C74,12.13,73.35,10.37,71,10.37c-1.92,0-2.58,1.54-2.58,2.94,0,1.86,1.08,2.8,3.12,4,3,1.67,4.23,2.91,4.23,5.47,0,2.83-2.24,5-5.41,5a9.46,9.46,0,0,1-3.76-.89,38.2,38.2,0,0,1-.67-4l.76-.22c.5,1.81,1.58,4.15,4.14,4.15a2.84,2.84,0,0,0,2.85-3.1c0-2.07-1-2.91-3.17-4.2-2.59-1.54-4-2.83-4-5.34a4.71,4.71,0,0,1,5.07-4.66,14.42,14.42,0,0,1,3.25.51c.1,1,.2,2.05.39,3.8Z"/><path class="cls-1" d="M86.74,9.43c4.2,0,8,3.53,8,8.89,0,5.8-3.59,9.41-8.12,9.41-4.72,0-8.17-3.93-8.17-9C78.42,13.9,81.55,9.43,86.74,9.43Zm-.5,1C83.49,10.43,81,13,81,18s2.51,8.71,6,8.71c3,0,5.22-2.43,5.22-7.63C92.2,13.42,89.47,10.43,86.24,10.43Z"/><path class="cls-1" d="M114.1,10.56c-1.58.19-2.09.46-2.17,1.7,0,.86-.07,2-.07,4.5V27.57h-.94l-10.53-14.1v6.74c0,2.43.08,3.64.13,4.42,0,1.38.66,1.78,2.43,1.94v.76H97v-.76c1.53-.13,2.12-.54,2.22-1.86.07-.86.12-2.07.12-4.53V13.31a2.54,2.54,0,0,0-.49-1.78c-.47-.67-1-.83-2.19-1V9.81h3.69l10.43,13.55v-6.6c0-2.51,0-3.66-.12-4.47-.08-1.22-.64-1.59-2.61-1.73V9.81h6.08Z"/><path class="cls-1" d="M130.12,13.9c-.42-1.77-1.11-3.53-3.42-3.53-1.92,0-2.59,1.54-2.59,2.94,0,1.86,1.08,2.8,3.13,4,3,1.67,4.23,2.91,4.23,5.47,0,2.83-2.24,5-5.41,5a9.55,9.55,0,0,1-3.77-.89,38.62,38.62,0,0,1-.66-4l.76-.22c.49,1.81,1.57,4.15,4.13,4.15a2.84,2.84,0,0,0,2.86-3.1c0-2.07-1-2.91-3.18-4.2-2.58-1.54-4-2.83-4-5.34a4.71,4.71,0,0,1,5.07-4.66,14.31,14.31,0,0,1,3.24.51c.1,1,.2,2.05.4,3.8Z"/><path class="cls-1" d="M146.5,14a11,11,0,0,0-.79-2.24c-.39-.73-.64-.91-2-.91h-2.46V24c0,2.1.2,2.4,2.54,2.56v.76h-7.16v-.76c2.28-.16,2.48-.43,2.48-2.56V10.89h-2.24c-1.35,0-1.74.16-2.16,1a11.47,11.47,0,0,0-.81,2.18h-.74c.14-1.65.29-3.34.37-4.85h.56c.37.64.64.62,1.33.62h9.74a1.21,1.21,0,0,0,1.26-.62H147c0,1.26.1,3.2.22,4.77Z"/><path class="cls-1" d="M157.57,9.43c4.21,0,8,3.53,8,8.89,0,5.8-3.6,9.41-8.12,9.41-4.73,0-8.17-3.93-8.17-9C149.26,13.9,152.38,9.43,157.57,9.43Zm-.49,1c-2.75,0-5.26,2.53-5.26,7.57s2.51,8.71,6,8.71c3,0,5.22-2.43,5.22-7.63C163,13.42,160.31,10.43,157.08,10.43Z"/><path class="cls-1" d="M184.93,10.56c-1.57.19-2.09.46-2.16,1.7,0,.86-.08,2-.08,4.5V27.57h-.93l-10.53-14.1v6.74c0,2.43.07,3.64.12,4.42.05,1.38.67,1.78,2.44,1.94v.76h-6v-.76c1.53-.13,2.12-.54,2.21-1.86.08-.86.13-2.07.13-4.53V13.31a2.54,2.54,0,0,0-.49-1.78c-.47-.67-1-.83-2.19-1V9.81h3.69l10.43,13.55v-6.6c0-2.51-.05-3.66-.13-4.47-.07-1.22-.63-1.59-2.6-1.73V9.81h6.07Z"/><path class="cls-1" d="M199.67,23c-.15.7-.81,3.48-1.06,4.29h-12v-.76c2.29-.19,2.46-.43,2.46-2.64V13.28c0-2.39-.27-2.53-2.12-2.72V9.81h7.53c2.31,0,3.27,0,3.57-.06,0,.68.12,2.7.22,4.13l-.74.13a9.67,9.67,0,0,0-.74-2c-.39-.89-1-1.07-2.43-1.07h-2.34c-.76,0-.81.08-.81.86V17.7H194c1.84,0,2-.4,2.26-2.23H197V21h-.77c-.32-1.94-.51-2.21-2.29-2.21h-2.7v5.36c0,1.89.54,2,1.77,2.08h2.29c1.5,0,1.74-.24,2.29-.95a11.8,11.8,0,0,0,1.32-2.48Z"/><path class="cls-1" d="M30.56,45.1c1.2,0,4.34,2.26,4.34,4.18s-3,6.43-8.12,14.55c15.27-1,27.49-9.24,27.49-17.52,0-3.94-3.62-7.72-13.18-7.72C22.68,38.59,5.88,49.93,5.88,61c0,4.66,3,5.86,3,6.51,0,.24-.24.4-.81.4C6,67.93.5,64.63.5,58.45.5,47.19,18.42,36.1,38.67,36.1c14.63,0,20.74,5.63,20.74,12,0,9.72-11.73,16.31-19.93,18.08,6.67,1.13,11.65,5.63,11.65,11.33,0,6.91-8.36,14.63-20.17,14.63-8.52,0-13.42-4.58-13.42-6.43,0-.32.24-.64.48-.64.56,0,2.25,3.37,8.68,3.37,11.25,0,19-7.15,19-13.58,0-4.26-3.78-7.07-11.5-7.07a89.18,89.18,0,0,0-10.28.64,11.42,11.42,0,0,0-.81,1.29C14,84.32,13.2,87.22,11.91,91.48c-.16.48-.24.64-.48.64-.48,0-4-1.05-4-3.94,0-2.73,3.38-7.07,10.45-19.29a4.37,4.37,0,0,1-1.13-.08c-2.57-.32-3.05-4.18-3-5.06.08-.4.4-.48.88-.4a44,44,0,0,0,6.11.56c6-10.77,8.2-15.83,9.16-18.24C30.08,45.35,30.24,45.1,30.56,45.1Z"/><path class="cls-1" d="M81.51,65.36c-9.73,0-21.38,14-21.38,20.09,0,1.61.64,2.17,1.37,2.17,2.17,0,7.55-4.9,12.85-11.65,2.58-3.3,2.9-4.18,3.38-4.18,1,0,2.57,1.93,2.57,3.13,0,1.69-3.94,5.39-3.94,8.84,0,2,1,2.65,2.17,2.65,4.67,0,10.13-6.91,12.14-9.56.56-.72.72-.8,1-.8a.39.39,0,0,1,.41.4,2.07,2.07,0,0,1-.49,1.2c-2.49,3.94-8.6,11.09-14.3,11.09a4.83,4.83,0,0,1-5.07-5,8,8,0,0,1,.65-3.29C68.57,85.53,63,90.75,58.76,90.75c-2.09,0-4.5-1.44-4.5-5.22,0-9.48,14.31-22.66,24.92-22.66,2.41,0,3.77.8,4.58,1.92.48.65.08,1.21-.65.89A4.35,4.35,0,0,0,81.51,65.36Z"/><path class="cls-1" d="M99.67,77.33c2.57,5.07,6,7.72,9.64,7.72,5,0,9.41-4,12.46-7.8.48-.56.64-.8.8-.8a.61.61,0,0,1,.57.56,1.86,1.86,0,0,1-.49,1c-3.93,5.3-9.88,11.49-15.59,11.49-5.14,0-7.79-5.39-8.84-10.85-2.57,2.57-5.06,5.38-6.19,7.87-1.28,2.66-1.28,5.79-2.41,5.79-.48,0-1.85-.48-1.85-3.62,0-10.85,25.09-60.29,33.77-60.29,1.93,0,3.54,1.53,3.54,2.25,0,.33-.32.57-1.13,1.05-6,3.86-25.17,34.25-31.19,50,8.35-10.2,16.47-18.24,20.49-18.24,2.09,0,5.22,1.93,5.22,2.89,0,.16-.24.32-.48.32-4.58.49-7.23,1.37-13.42,6.35C103.28,74.12,101.52,75.56,99.67,77.33Z"/><path class="cls-1" d="M135.91,63.43c3.86,0,5.23,1.61,5.23,3.86,0,3.93-7.32,9.72-16.8,11.81a14.65,14.65,0,0,0-1.13,5.14c0,2.41,1.21,3.54,3.94,3.54,6.91,0,14.87-7.64,17.68-10.93.57-.72.81-.72,1-.72s.32.16.32.4-.08.56-.56,1.2c-3.3,4.59-12.22,12.7-20.1,12.7-5,0-8-2.57-8-7.87C117.59,73.8,128.84,63.43,135.91,63.43Zm1.21,1.85c-3.62.08-9.16,6.19-12.06,12.21,7.32-2,13.1-8.68,13.1-11.09C138.16,65.6,137.76,65.28,137.12,65.28Z"/><path class="cls-1" d="M146,64c1.6,0,4.58,1,4.58,3.46,0,1.36-.81,4-3.06,9.64,5.63-8.44,9.25-15.19,14.15-15.19a5.57,5.57,0,0,1,5.3,4.58.56.56,0,0,1-.56.57c-.48,0-1.12-.73-2.89-.73-3.46,0-9.08,2.81-15,12.62-4.26,7.07-4.34,10.77-5.95,10.77-1.2,0-3.21-1.85-3.21-2.89s1.93-4.59,3.85-10.37c2-6,2.17-9.08,2.17-10a7.31,7.31,0,0,0-.24-1.85C145.15,64.23,145.31,64,146,64Z"/><path class="cls-1" d="M158.65,108.43c0-6.83,10.13-14.78,21.94-21.45,1.61-4.26,2.82-8,3.62-10l.64-1.53c-.08.08-.16.08-.16.16-5,6.84-12.37,14.15-16.39,14.15-3,0-5.47-2.17-5.47-6.75,0-5.55,7.56-18,11-18,1.29,0,3.06,1.68,3.06,2.49,0,.56-.57.72-1.69,2-6,7-7.64,11.81-7.64,14.86,0,1.77.65,2.58,1.93,2.58,3.06,0,11.42-9.33,13.91-12.78,5.7-7.72,8.92-12.22,11.25-12.22a2.11,2.11,0,0,1,2.09,1.37c0,.32-.32.64-1.21,1.44-1.77,1.61-3.94,3.94-6.43,10.85-.64,1.77-1.44,4.67-2.49,8.12,2.89-1.53,5.87-3,8.76-4.26a3.64,3.64,0,0,1,1.37-.4c.48,0,.8.16.8.48,0,.48-.48.89-1.36,1.29-3.38,1.53-6.92,3.21-10.29,5.06-3.62,11.74-9.81,27.89-20.9,27.89C161.22,113.82,158.65,111.89,158.65,108.43Zm5.07,3.14c6.18,0,12-11.9,15.91-21.94-10.21,6.19-18.16,13.34-18.16,19.45A2.31,2.31,0,0,0,163.72,111.57Z"/><line class="cls-2" x1="1.2" y1="2" x2="200.5" y2="2"/><polygon class="cls-1" points="113.81 32.39 112.31 34.39 1.2 34.39 1.2 32.39 113.81 32.39"/><polygon class="cls-1" points="200.5 32.39 200.5 34.39 123.27 34.39 125.27 32.39 200.5 32.39"/></g></g></g></svg>